M48
; DRILL file {KiCad 7.0.1} date Sun 30 Apr 2023 23:40:39
; FORMAT={-:-/ absolute / metric / decimal}
; #@! TF.CreationDate,2023-04-30T23:40:39+01:00
; #@! TF.GenerationSoftware,Kicad,Pcbnew,7.0.1
; #@! TF.FileFunction,MixedPlating,1,2
FMAT,2
METRIC
; #@! TA.AperFunction,Plated,PTH,ViaDrill
T1C0.400
; #@! TA.AperFunction,Plated,PTH,ComponentDrill
T2C0.500
; #@! TA.AperFunction,Plated,PTH,ComponentDrill
T3C0.600
; #@! TA.AperFunction,Plated,PTH,ComponentDrill
T4C1.000
; #@! TA.AperFunction,Plated,PTH,ComponentDrill
T5C1.100
; #@! TA.AperFunction,Plated,PTH,ComponentDrill
T6C1.300
; #@! TA.AperFunction,Plated,PTH,ComponentDrill
T7C3.200
; #@! TA.AperFunction,NonPlated,NPTH,ComponentDrill
T8C0.600
%
G90
G05
T1
X99.568Y-98.044
X99.568Y-105.664
X99.568Y-113.284
X99.568Y-120.396
X101.092Y-117.856
X101.092Y-130.556
X103.124Y-87.376
X103.124Y-90.932
X105.664Y-76.2
X105.664Y-84.328
X106.172Y-91.44
X126.492Y-126.492
X129.032Y-121.412
X129.54Y-118.872
X129.794Y-107.95
X130.81Y-116.84
X131.064Y-76.2
X132.588Y-107.696
X132.588Y-111.76
X132.588Y-116.84
X134.366Y-112.776
X134.366Y-116.84
X137.922Y-82.55
X139.7Y-113.538
X140.208Y-124.206
X141.732Y-107.696
X143.256Y-78.74
X144.78Y-86.106
X145.542Y-130.048
X145.542Y-131.826
X148.336Y-128.524
X150.622Y-117.094
X152.388Y-71.755
X152.4Y-87.376
X152.4Y-101.092
X152.4Y-104.394
X152.4Y-110.744
X153.387Y-71.726
X153.416Y-88.392
X154.94Y-113.284
X155.194Y-108.712
X155.956Y-75.565
X157.48Y-123.952
X157.48Y-126.492
X159.004Y-90.424
X159.258Y-123.952
X159.258Y-126.492
X160.528Y-90.424
X161.544Y-105.664
X163.068Y-104.14
X163.576Y-125.476
X163.576Y-126.492
X163.576Y-127.508
X165.1Y-104.14
X165.1Y-105.664
X165.1Y-114.808
X165.1Y-115.824
X165.1Y-120.396
X165.1Y-121.412
X165.1Y-122.428
X167.894Y-102.87
X168.148Y-109.22
X168.148Y-125.984
X171.704Y-107.95
X171.704Y-109.22
X171.704Y-110.49
X171.958Y-114.808
X171.958Y-117.856
X172.72Y-124.46
X173.482Y-117.856
X174.244Y-102.362
X175.514Y-113.538
X176.784Y-116.078
X177.804Y-112.272
X179.07Y-94.742
X179.07Y-105.664
X180.086Y-123.19
X180.594Y-108.966
X180.594Y-109.982
X180.594Y-111.252
X180.594Y-115.57
X180.594Y-116.586
X183.642Y-112.268
X183.642Y-130.302
X194.056Y-83.058
X194.056Y-87.884
T2
X91.58Y-69.85
X91.58Y-131.872
X92.283Y-68.153
X92.283Y-71.547
X92.283Y-130.175
X92.283Y-133.569
X93.98Y-67.45
X93.98Y-72.25
X93.98Y-129.472
X93.98Y-134.272
X95.677Y-68.153
X95.677Y-71.547
X95.677Y-130.175
X95.677Y-133.569
X96.38Y-69.85
X96.38Y-131.872
X140.02Y-77.005
X141.92Y-77.005
X195.72Y-69.85
X196.147Y-131.872
X196.423Y-68.153
X196.423Y-71.547
X196.85Y-130.175
X196.85Y-133.569
X198.12Y-67.45
X198.12Y-72.25
X198.547Y-129.472
X198.547Y-134.272
X199.817Y-68.153
X199.817Y-71.547
X200.244Y-130.175
X200.244Y-133.569
X200.52Y-69.85
X200.947Y-131.872
T4
X121.285Y-102.87
X121.285Y-105.41
X121.285Y-107.95
X121.285Y-110.49
X121.285Y-113.03
X121.285Y-115.57
X121.285Y-118.11
X121.285Y-120.65
X123.825Y-102.87
X123.825Y-105.41
X123.825Y-107.95
X123.825Y-110.49
X123.825Y-113.03
X123.825Y-115.57
X123.825Y-118.11
X123.825Y-120.65
X135.27Y-134.62
X137.81Y-134.62
X140.35Y-134.62
X144.16Y-134.595
X146.7Y-134.595
X149.24Y-134.595
X173.99Y-134.62
X176.53Y-134.62
X179.07Y-134.62
X181.61Y-134.62
X184.15Y-134.62
X187.96Y-134.62
X190.5Y-134.62
X193.04Y-134.62
T5
X90.73Y-78.685
X90.73Y-83.185
X90.73Y-86.305
X90.73Y-90.805
X90.805Y-97.445
X90.805Y-101.945
X90.805Y-105.065
X90.805Y-109.565
X90.805Y-112.685
X90.805Y-117.185
X90.805Y-120.305
X90.805Y-124.805
X97.23Y-78.685
X97.23Y-83.185
X97.23Y-86.305
X97.23Y-90.805
X97.305Y-97.445
X97.305Y-101.945
X97.305Y-105.065
X97.305Y-109.565
X97.305Y-112.685
X97.305Y-117.185
X97.305Y-120.305
X97.305Y-124.805
T6
X168.275Y-69.85
X173.275Y-69.85
X178.275Y-69.85
X183.275Y-69.85
T7
X93.98Y-69.85
X93.98Y-131.872
X198.12Y-69.85
X198.547Y-131.872
T8
X197.56Y-87.96
T3
G00X196.335Y-80.64
M15
G01X197.335Y-80.64
M16
G05
G00X196.335Y-89.28
M15
G01X197.335Y-89.28
M16
G05
G00X200.01Y-80.64
M15
G01X201.31Y-80.64
M16
G05
G00X200.01Y-89.28
M15
G01X201.31Y-89.28
M16
G05
T8
G00X197.56Y-82.085
M15
G01X197.56Y-81.835
M16
G05
T0
M30
