%TF.GenerationSoftware,KiCad,Pcbnew,7.0.1*%
%TF.CreationDate,2023-04-30T23:40:34+01:00*%
%TF.ProjectId,clock25,636c6f63-6b32-4352-9e6b-696361645f70,rev?*%
%TF.SameCoordinates,Original*%
%TF.FileFunction,Paste,Top*%
%TF.FilePolarity,Positive*%
%FSLAX46Y46*%
G04 Gerber Fmt 4.6, Leading zero omitted, Abs format (unit mm)*
G04 Created by KiCad (PCBNEW 7.0.1) date 2023-04-30 23:40:34*
%MOMM*%
%LPD*%
G01*
G04 APERTURE LIST*
G04 Aperture macros list*
%AMRoundRect*
0 Rectangle with rounded corners*
0 $1 Rounding radius*
0 $2 $3 $4 $5 $6 $7 $8 $9 X,Y pos of 4 corners*
0 Add a 4 corners polygon primitive as box body*
4,1,4,$2,$3,$4,$5,$6,$7,$8,$9,$2,$3,0*
0 Add four circle primitives for the rounded corners*
1,1,$1+$1,$2,$3*
1,1,$1+$1,$4,$5*
1,1,$1+$1,$6,$7*
1,1,$1+$1,$8,$9*
0 Add four rect primitives between the rounded corners*
20,1,$1+$1,$2,$3,$4,$5,0*
20,1,$1+$1,$4,$5,$6,$7,0*
20,1,$1+$1,$6,$7,$8,$9,0*
20,1,$1+$1,$8,$9,$2,$3,0*%
G04 Aperture macros list end*
%ADD10R,0.900000X0.900000*%
%ADD11RoundRect,0.200000X-0.275000X0.200000X-0.275000X-0.200000X0.275000X-0.200000X0.275000X0.200000X0*%
%ADD12RoundRect,0.243750X0.456250X-0.243750X0.456250X0.243750X-0.456250X0.243750X-0.456250X-0.243750X0*%
%ADD13RoundRect,0.225000X-0.250000X0.225000X-0.250000X-0.225000X0.250000X-0.225000X0.250000X0.225000X0*%
%ADD14R,1.200000X0.700000*%
%ADD15R,0.800000X1.000000*%
%ADD16R,1.200000X1.000000*%
%ADD17R,2.800000X1.000000*%
%ADD18R,1.900000X1.300000*%
%ADD19RoundRect,0.150000X-0.150000X0.512500X-0.150000X-0.512500X0.150000X-0.512500X0.150000X0.512500X0*%
%ADD20R,2.000000X1.000000*%
%ADD21R,1.000000X0.520000*%
%ADD22R,1.000000X0.270000*%
%ADD23RoundRect,0.200000X0.275000X-0.200000X0.275000X0.200000X-0.275000X0.200000X-0.275000X-0.200000X0*%
%ADD24R,1.500000X0.900000*%
%ADD25R,0.900000X1.500000*%
%ADD26RoundRect,0.150000X0.150000X0.625000X-0.150000X0.625000X-0.150000X-0.625000X0.150000X-0.625000X0*%
%ADD27RoundRect,0.250000X0.350000X0.650000X-0.350000X0.650000X-0.350000X-0.650000X0.350000X-0.650000X0*%
%ADD28R,1.270000X5.080000*%
%ADD29RoundRect,0.200000X-0.200000X-0.275000X0.200000X-0.275000X0.200000X0.275000X-0.200000X0.275000X0*%
%ADD30RoundRect,0.150000X-0.150000X0.825000X-0.150000X-0.825000X0.150000X-0.825000X0.150000X0.825000X0*%
%ADD31RoundRect,0.200000X0.200000X0.275000X-0.200000X0.275000X-0.200000X-0.275000X0.200000X-0.275000X0*%
G04 APERTURE END LIST*
D10*
%TO.C,R7*%
X178030000Y-120964000D03*
X178030000Y-119644000D03*
X178030000Y-118364000D03*
X178030000Y-117084000D03*
X178030000Y-115764000D03*
X175030000Y-115764000D03*
X175030000Y-117084000D03*
X175030000Y-118364000D03*
X175030000Y-119644000D03*
X175030000Y-120964000D03*
%TD*%
D11*
%TO.C,R2*%
X192024000Y-86551000D03*
X192024000Y-88201000D03*
%TD*%
D12*
%TO.C,D2*%
X130048000Y-135128000D03*
X130048000Y-133253000D03*
%TD*%
D13*
%TO.C,C3*%
X173990000Y-130289000D03*
X173990000Y-131839000D03*
%TD*%
D14*
%TO.C,J6*%
X185315000Y-108985000D03*
X185315000Y-110085000D03*
X185315000Y-111185000D03*
X185315000Y-112285000D03*
X185315000Y-113385000D03*
X185315000Y-114485000D03*
X185315000Y-115585000D03*
X185315000Y-116685000D03*
X185315000Y-117635000D03*
D15*
X195815000Y-118585000D03*
D16*
X189615000Y-118585000D03*
D17*
X199965000Y-118585000D03*
D16*
X185315000Y-107435000D03*
D18*
X200415000Y-105085000D03*
%TD*%
D19*
%TO.C,U2*%
X178938000Y-101854000D03*
X177988000Y-101854000D03*
X177038000Y-101854000D03*
X177038000Y-104129000D03*
X178938000Y-104129000D03*
%TD*%
D20*
%TO.C,J1*%
X200660000Y-86360000D03*
X200660000Y-83560000D03*
D21*
X196460000Y-88060000D03*
X196460000Y-87310000D03*
D22*
X196460000Y-86710000D03*
X196460000Y-85210000D03*
X196460000Y-84210000D03*
X196460000Y-83210000D03*
D21*
X196460000Y-82610000D03*
X196460000Y-81860000D03*
X196460000Y-81860000D03*
X196460000Y-82610000D03*
D22*
X196460000Y-83710000D03*
X196460000Y-84710000D03*
X196460000Y-85710000D03*
X196460000Y-86210000D03*
D21*
X196460000Y-87310000D03*
X196460000Y-88060000D03*
%TD*%
D11*
%TO.C,R4*%
X143256000Y-80455000D03*
X143256000Y-82105000D03*
%TD*%
D23*
%TO.C,R1*%
X192024000Y-84391000D03*
X192024000Y-82741000D03*
%TD*%
D12*
%TO.C,D1*%
X125984000Y-135049500D03*
X125984000Y-133174500D03*
%TD*%
D24*
%TO.C,U1*%
X169810000Y-128500000D03*
X169810000Y-127230000D03*
X169810000Y-125960000D03*
X169810000Y-124690000D03*
X169810000Y-123420000D03*
X169810000Y-122150000D03*
X169810000Y-120880000D03*
X169810000Y-119610000D03*
X169810000Y-118340000D03*
X169810000Y-117070000D03*
X169810000Y-115800000D03*
X169810000Y-114530000D03*
X169810000Y-113260000D03*
X169810000Y-111990000D03*
D25*
X168045000Y-110740000D03*
X166775000Y-110740000D03*
X165505000Y-110740000D03*
X164235000Y-110740000D03*
X162965000Y-110740000D03*
X161695000Y-110740000D03*
X160425000Y-110740000D03*
X159155000Y-110740000D03*
X157885000Y-110740000D03*
X156615000Y-110740000D03*
X155345000Y-110740000D03*
X154075000Y-110740000D03*
D24*
X152310000Y-111990000D03*
X152310000Y-113260000D03*
X152310000Y-114530000D03*
X152310000Y-115800000D03*
X152310000Y-117070000D03*
X152310000Y-118340000D03*
X152310000Y-119610000D03*
X152310000Y-120880000D03*
X152310000Y-122150000D03*
X152310000Y-123420000D03*
X152310000Y-124690000D03*
X152310000Y-125960000D03*
X152310000Y-127230000D03*
X152310000Y-128500000D03*
D10*
X163960000Y-122180000D03*
X163960000Y-120780000D03*
X163960000Y-119380000D03*
X162560000Y-122180000D03*
X162560000Y-120780000D03*
X162560000Y-119380000D03*
X161160000Y-122180000D03*
X161160000Y-120780000D03*
X161160000Y-119380000D03*
%TD*%
D13*
%TO.C,C6*%
X175514000Y-102349000D03*
X175514000Y-103899000D03*
%TD*%
%TO.C,C2*%
X99695000Y-78600000D03*
X99695000Y-80150000D03*
%TD*%
D23*
%TO.C,R12*%
X99568000Y-100901000D03*
X99568000Y-99251000D03*
%TD*%
D11*
%TO.C,R9*%
X99568000Y-87567000D03*
X99568000Y-89217000D03*
%TD*%
D23*
%TO.C,R13*%
X99568000Y-108521000D03*
X99568000Y-106871000D03*
%TD*%
%TO.C,R10*%
X123952000Y-134937000D03*
X123952000Y-133287000D03*
%TD*%
D13*
%TO.C,C4*%
X172212000Y-130289000D03*
X172212000Y-131839000D03*
%TD*%
D26*
%TO.C,J4*%
X155545000Y-70072000D03*
X154545000Y-70072000D03*
X153545000Y-70072000D03*
X152545000Y-70072000D03*
D27*
X156845000Y-66197000D03*
X151245000Y-66197000D03*
%TD*%
D28*
%TO.C,BT1*%
X129095000Y-76200000D03*
X107125000Y-76200000D03*
%TD*%
D29*
%TO.C,R3*%
X177229000Y-98298000D03*
X178879000Y-98298000D03*
%TD*%
D13*
%TO.C,C5*%
X180528000Y-102216500D03*
X180528000Y-103766500D03*
%TD*%
D30*
%TO.C,U3*%
X141605000Y-80710000D03*
X140335000Y-80710000D03*
X139065000Y-80710000D03*
X137795000Y-80710000D03*
X137795000Y-85660000D03*
X139065000Y-85660000D03*
X140335000Y-85660000D03*
X141605000Y-85660000D03*
%TD*%
D23*
%TO.C,R8*%
X99695000Y-83375000D03*
X99695000Y-81725000D03*
%TD*%
D31*
%TO.C,R5*%
X167957000Y-105664000D03*
X166307000Y-105664000D03*
%TD*%
%TO.C,R6*%
X167957000Y-104140000D03*
X166307000Y-104140000D03*
%TD*%
D23*
%TO.C,R15*%
X99568000Y-123253000D03*
X99568000Y-121603000D03*
%TD*%
%TO.C,R11*%
X128016000Y-134937000D03*
X128016000Y-133287000D03*
%TD*%
D13*
%TO.C,C7*%
X181864000Y-112509000D03*
X181864000Y-114059000D03*
%TD*%
%TO.C,C1*%
X143256000Y-84061000D03*
X143256000Y-85611000D03*
%TD*%
D23*
%TO.C,R14*%
X99568000Y-116141000D03*
X99568000Y-114491000D03*
%TD*%
M02*
